<svg width="108" height="26" viewBox="0 0 108 26" fill="none" xmlns="http://www.w3.org/2000/svg">
<path fill-rule="evenodd" clip-rule="evenodd" d="M11.3171 14.0302L0 25.3725H11.6589L19.8989 17.1239L29.4648 17.1239L37.7452 25.3725H49.4332L38.0909 14.0302H11.3171ZM42.924 14.0302L43.6296 14.7358L43.6017 14.7636L49.4341 20.5959L49.4619 20.5681L49.4897 20.5959L55.3221 14.7636L55.2943 14.7358L56.0542 14.0302H42.924ZM57.7198 12.4836H41.3774L29.5214 0.62758H41.1861L49.4619 8.90342L57.7378 0.627568L65.8176 0.627568V12.4836H57.7378V12.4669L57.7198 12.4836ZM57.7378 14.0302L57.7378 25.3721H65.8176V14.0302H57.7378ZM70.1099 14.0302V19.188V25.3721L70.2172 25.2917L70.2186 25.3721L90.3236 25.3721L83.8996 19.188H78.3581V14.0302H70.1099ZM86.3485 14.0302V17.1239L94.5967 25.3721V19.188H99.7518H104.391H108V14.0302H86.3485ZM108 12.4836H86.3485V0.627563H94.0812H94.5967H99.7518H107.484H108V12.4836ZM78.3581 12.4836H70.1099L70.1099 0.627563H78.3581V12.4836ZM36.5443 12.4836H12.8602L24.689 0.628341L36.5443 12.4836ZM8.37878 12.4836L16.6253 4.23715V0.627563H8.37707V12.4836H8.37878Z" fill="white"/>
</svg>
