<svg width="32" height="32" viewBox="0 0 32 32" fill="none" xmlns="http://www.w3.org/2000/svg">
<path d="M25.5302 6.99984H7.11345L5.53989 4.1793C5.36326 3.8627 5.02913 3.6665 4.6666 3.6665H2.6666C2.11432 3.6665 1.6666 4.11422 1.6666 4.6665C1.6666 5.21878 2.11432 5.6665 2.6666 5.6665H4.0794L5.63232 8.45004L9.21375 16.3744L9.21742 16.3824L9.53288 17.0804L5.93709 20.9158C5.67853 21.1917 5.5976 21.5897 5.72792 21.9445C5.85822 22.2994 6.17749 22.5505 6.55307 22.5934L9.83058 22.968C13.9302 23.4365 18.0698 23.4365 22.1693 22.968L25.4469 22.5934C25.9955 22.5306 26.3895 22.035 26.3269 21.4862C26.2641 20.9376 25.7685 20.5436 25.2198 20.6064L21.9422 20.9809C17.9935 21.4321 14.0063 21.4321 10.0577 20.9809L8.75698 20.8322L11.3962 18.0172C11.4217 17.9898 11.4454 17.9616 11.4673 17.9324L12.471 18.063C13.8777 18.2461 15.2994 18.282 16.7134 18.1701C20.0114 17.9093 23.0679 16.34 25.2019 13.812L25.9726 12.8988C25.9986 12.8682 26.0226 12.836 26.0446 12.8024L27.4811 10.6133C28.4993 9.06161 27.3862 6.99984 25.5302 6.99984Z" stroke="#fff"/>
<path d="M8.6666 24.6665C7.56202 24.6665 6.6666 25.562 6.6666 26.6665C6.6666 27.771 7.56202 28.6665 8.6666 28.6665C9.77117 28.6665 10.6666 27.771 10.6666 26.6665C10.6666 25.562 9.77117 24.6665 8.6666 24.6665Z" stroke="#fff"/>
<path d="M21.3334 26.6665C21.3334 25.562 22.2289 24.6665 23.3334 24.6665C24.4379 24.6665 25.3334 25.562 25.3334 26.6665C25.3334 27.771 24.4379 28.6665 23.3334 28.6665C22.2289 28.6665 21.3334 27.771 21.3334 26.6665Z" stroke="#fff"/>
</svg>
